<svg xmlns="http://www.w3.org/2000/svg" viewBox="0 0 101.45 81.36">
  <defs/>
  <path fill="#fff" d="M51.1 7.25a33.48 33.48 0 100 66.97 33.48 33.48 0 000-66.97zm0 63.62a30.14 30.14 0 110-60.27 30.14 30.14 0 010 60.27zM98.79.87a4.1 4.1 0 00-4.48.9 21.63 21.63 0 00-6.38 15.38v21.9c.01 2.13 1.35 4.02 3.35 4.72V75.9a5.02 5.02 0 1010.05 0V4.67c0-1.67-1-3.17-2.54-3.8zm-.81 75.02a1.67 1.67 0 01-3.35 0V44.1h3.35zm0-35.16h-5.03c-.92 0-1.67-.75-1.67-1.67v-21.9a18.3 18.3 0 015.4-13.03.72.72 0 01.83-.16c.29.1.48.39.47.7z"/>
  <path fill="#fff" d="M37.7 29.01a6.7 6.7 0 100 13.4 6.7 6.7 0 000-13.4zm0 10.05a3.35 3.35 0 110-6.7 3.35 3.35 0 010 6.7z"/>
  <path fill="#fff" d="M51.24 30.14L48.3 27.2a1.86 1.86 0 01-.55-1.33 5.23 5.23 0 00-5.22-5.23h-6.7c-1.39 0-2.71.56-3.7 1.53l-6.29 6.3a5.19 5.19 0 00-1.53 3.69v7.1c0 1.39.55 2.72 1.53 3.7l2.94 2.94c.36.35.56.83.55 1.33a5.23 5.23 0 005.23 5.22h3.35c1.38 0 2.71-.55 3.7-1.53l4.61-4.61a1.9 1.9 0 011.33-.55 5.23 5.23 0 005.22-5.23v-6.7c0-1.38-.54-2.71-1.53-3.7zm-1.82 10.4c0 1.03-.84 1.87-1.87 1.87-1.39 0-2.71.55-3.7 1.53l-4.61 4.62a1.9 1.9 0 01-1.33.54h-3.35a1.88 1.88 0 01-1.88-1.87c0-1.39-.54-2.72-1.53-3.7l-2.94-2.94a1.86 1.86 0 01-.55-1.33v-7.1c0-.5.2-.98.55-1.33l6.3-6.29a1.9 1.9 0 011.32-.55h6.7c1.03 0 1.87.84 1.87 1.88 0 1.38.55 2.72 1.53 3.7l2.95 2.94c.35.35.55.83.54 1.32z"/>
  <path fill="#fff" d="M67.35 44.57l-6.7-6.7a1.67 1.67 0 00-2.85 1.19v3.35c0 .92-.75 1.67-1.68 1.67a5.02 5.02 0 00-5.02 5.02c0 .93-.75 1.68-1.68 1.68a5.02 5.02 0 00-5.02 5.02c0 .93-.75 1.68-1.67 1.68h-3.35a1.67 1.67 0 00-1.18 2.85l6.7 6.7c.3.31.73.5 1.18.5h3.34a5.02 5.02 0 005.03-5.03c0-.93.75-1.68 1.67-1.68a5.02 5.02 0 005.02-5.02c0-.92.75-1.67 1.68-1.67a5.02 5.02 0 005.02-5.03v-3.34c0-.45-.18-.87-.49-1.19zm-2.86 4.53c0 .93-.75 1.68-1.67 1.68a5.02 5.02 0 00-5.02 5.02c0 .93-.75 1.68-1.68 1.68a5.02 5.02 0 00-5.02 5.02c0 .92-.75 1.67-1.68 1.67h-2.65l-3.4-3.39a5.02 5.02 0 004.38-4.98c0-.92.75-1.67 1.67-1.67a5.02 5.02 0 005.03-5.03c0-.92.75-1.67 1.67-1.67a5.02 5.02 0 004.98-4.37l3.4 3.39zM76 31.46l-.28-.28-8.37-8.37-6.98-6.99a6.4 6.4 0 10-9.07 9.07l.3.29 8.36 8.37 6.99 6.98A6.4 6.4 0 0076 31.46zM53.88 18a3.09 3.09 0 014.12.19l4.14 4.13h-8.65a3.06 3.06 0 01.4-4.32zm2.94 7.67h8.66l5.03 5.02h-8.66zm16.63 12.68a3.08 3.08 0 01-4.12-.19l-4.13-4.12h8.64c1.08 1.3.9 3.23-.4 4.3zM14.27.55v13.4h-3.35V.55H7.57v13.4H4.22V.55H.87v21.77a8.34 8.34 0 003.35 6.65v46.92a5.02 5.02 0 1010.05 0V28.97a8.34 8.34 0 003.34-6.65V.55zM10.92 75.9a1.67 1.67 0 01-3.35 0V30.7h3.35zm3.35-53.57a5.02 5.02 0 11-10.05 0v-5.03h10.05z"/>
</svg>
