<svg xmlns="http://www.w3.org/2000/svg" viewBox="0 0 101.25 87.83">
  <defs/>
  <path fill="#fff" d="M100.57 19.1c-.37-1.26-1.9-1.24-2.95-1.39-1.13-.15-2.55-.64-3.63-.06-1.02.55-1.67 1.87-2.22 2.84-.66 1.18-1.3 2.5-1.73 3.78A23.6 23.6 0 0089 28c-.25 1.47-.73 2.85-.76 4.36-.05 3.09 0 6.34.76 9.34.36 1.45.47 2.54 1.57 3.65l.33.3c-.42 1.18-.4 2.53-.59 3.75-.25 1.58-.51 3.2-.62 4.8l-.05-.01c-1.7-.34-3.53-.7-5.27-.59-1.52.1-3.06.19-4.56.52-1.2.27-2.36.39-3.43.86-.02-1.03-.15-2.03-.14-3.06 0-1.32-.12-2.62-.13-3.93-.02-1.23.04-2.46-.06-3.7-.2-2.34-.13-4.67-.47-7.01-.17-1.1-.11-2.43-.6-3.45-.41-.86-1.23-1.16-2.12-1.36-1.5-.33-3-.45-4.51-.5l-.01-.04c-.39-.81-1.45-1.18-2.14-1.71-.48-.37-1-.7-1.53-1-.06-.5.05-1.17.05-1.62 0-.67 0-1.33-.1-2-.06-.38-.03-.9-.12-1.27v-.05c1.71-.12 3.53-.95 4.31-2.38.59-1.09.83-2.25.88-3.44.02-.28.03-.57.02-.86a24.66 24.66 0 00-.36-3.2l-.05-.8c-.12-1.24-.16-2.54-.77-3.67-.18-.33-.39-.55-.63-.69-.09-.1-.2-.14-.3-.13a3.4 3.4 0 00-1.39-.01c-.94.13-1.86.22-2.8.3-.96.08-2.21.07-2.98.75-.8.71-.74 2.08-.88 3.05-.18 1.23-.08 2.46-.22 3.7-.11.95-.12 1.9.03 2.84.3 2 1.46 3.94 3.53 4.42l-.01.17c-.08 1.14.08 2.3.07 3.45 0 .32-.05.74-.06 1.17-.3.81-1.32 1.31-2.03 1.77-.4.25-.92.28-1.06.82v.04c-1.02 0-2.06.04-3.1 0l-.02-.01c.03-.98.16-1.94.1-2.92a50.16 50.16 0 01-.16-3.37c0-2.41 0-4.79-.23-7.18a7.2 7.2 0 00-.67-2.79c-.39-.7-1.07-1.17-1.47-1.87-.5-.87-.29-2.06-.42-3.04-.1-.74.05-1.51.06-2.27 0-.9-.07-1.75-.2-2.63a.69.69 0 010-.25c.01-.08.06-.15.1-.23.32-.57.24-1.21.23-1.84 0-.67.08-1.34-.08-2.01-.05-.23-.28-.49-.52-.53-1.18-.17-2.38-.01-3.57-.07-.87-.05-2.09-.2-2.73.54-1.35 1.58.05 5.53.03 7.4-.01 1.16-.33 2.23-.24 3.39.08 1.18-.48 1.72-1.14 2.62-.67.92-.74 1.87-.92 2.96-.18 1.12-.27 2.24-.44 3.36-.18 1.24 0 2.6 0 3.86 0 1.36-.14 2.7-.12 4.06 0 .87-.04 1.84.09 2.74l-.2.01c-.8.04-1.76.36-2.53.12-.73-.22-1.3-.8-1.93-1.19-.6-.37-1.33-.78-1.59-1.49-.01-.43-.07-.85-.07-1.17 0-1.15.16-2.31.08-3.45l-.02-.17c2.08-.48 3.24-2.43 3.54-4.42.16-1.01.09-2.06 0-3.08-.09-1.15-.03-2.32-.2-3.46-.13-.97-.07-2.34-.87-3.05-.77-.68-2.03-.67-2.99-.75-.94-.08-1.86-.17-2.8-.3-.91-.12-1.82-.1-2.32.83-.67 1.27-.62 2.72-.81 4.09-.36 2.58-.76 5.49.54 7.88.78 1.43 2.6 2.26 4.3 2.38l.01.05c-.22.83-.27 1.7-.27 2.56 0 .26.27 2.24.1 2.34-.54.29-1.05.62-1.53.99-.69.53-1.75.9-2.14 1.72l-.01.03a24.2 24.2 0 00-4.51.5c-.89.2-1.71.5-2.12 1.36-.5 1.02-.44 2.36-.6 3.45-.34 2.34-.28 4.67-.47 7.02-.1 1.23-.04 2.46-.06 3.7-.01 1.3-.13 2.6-.13 3.92 0 1.03-.12 2.03-.15 3.06-1.06-.47-2.22-.6-3.43-.86-1.49-.33-3.03-.42-4.55-.52a21.1 21.1 0 00-5.27.59h-.05c-.11-1.6-.37-3.21-.62-4.8-.2-1.2-.17-2.56-.6-3.74l.34-.3c1.1-1.1 1.2-2.2 1.57-3.65.76-3 .81-6.25.76-9.33-.03-1.52-.51-2.9-.76-4.37-.22-1.29-.61-2.5-1.04-3.73a23.76 23.76 0 00-1.73-3.78c-.55-.97-1.2-2.29-2.22-2.84-1.08-.58-2.5-.1-3.63.07-1.05.14-2.58.12-2.95 1.38-.13.44-.05.92.02 1.36.14.83.15 1.64.24 2.47l.52 4.52c.39 3.33 1.08 6.62 1.61 9.94.14.84.23 1.68.33 2.51.05 1.17.14 2.32.27 3.47.13 1.02.23 2.39.9 3.23.28.36.62.52 1 .58.02.48.12.96.16 1.46.06.83.13 1.69.26 2.52.25 1.57.4 3.19.71 4.75h-.02C3.87 57 2.24 60.43 4.54 62.66c.55.53 1.3.75 2.1.84-.14.35-.25.9-.27 1.04-.1 1-.28 1.97-.43 2.96-.31 1.95-.46 3.92-.66 5.89-.18 1.8-.42 3.6-.63 5.4-.2 1.87-.68 3.76-.72 5.64-.03 1.7 1.29 2.2 2.8 2.4 1.54.2 3.07-.16 3.48-1.84.4-1.66.6-3.42.85-5.1.13-.8.23-1.6.33-2.38.06-.44.07-.82.07-1.27 0-.46.17-.9.18-1.36.04-1.98.26-3.95.52-5.91.07-.47.57-5.4.79-5.41.79-.01 1.58-.03 2.37-.08 1.99-.12 4.01.16 6-.06.9-.09 2.02.06 3.05-.04-.12 1.18-.2 2.36-.08 3.52.24 2.29 1.94 4.34 4.4 4.1l.1-.02c-.1.77-.24 1.53-.4 2.3-.29 1.46-.53 2.97-.76 4.44-.2 1.34-.29 2.7-.47 4.03-.08.58-.15 1.2-.18 1.78-.03.6-.22 1.3-.12 1.9.18 1.08.96 1.63 1.96 1.85.72.17 1.22.03 1.94 0 .74-.04 1.34-.02 2-.37a.5.5 0 00.12-.09l.17-.07c.27-.13.43-.23.6-.47.4-.52.39-1.23.45-1.86.15-1.43.3-2.88.31-4.32 0-1.55.09-3.16.31-4.7.12-.8.06-1.53.1-2.34.01-.55.1-1.09.17-1.63h.02c1.63.05 3.05-1.03 4.05-2.4l.1.23c.34.66.78 1.3 1.32 1.82 1.08 1 2.59 1.63 4.04 1.13a5.31 5.31 0 002.52-2.22c.45 1.1 1.24 1.93 2.55 2.1 1.52.21 2.7-.36 3.37-1.74.17-.36.36-.74.53-1.14l.1.19c.7 1.15 1.6 2.35 2.9 2.8 1.46.51 2.97-.11 4.04-1.12.55-.51.99-1.16 1.33-1.82l.1-.23c1 1.37 2.42 2.45 4.05 2.4h.02c.07.54.16 1.08.18 1.63.03.8-.03 1.54.08 2.35.23 1.53.32 3.14.32 4.7 0 1.43.16 2.88.3 4.31.07.63.06 1.34.45 1.86.18.24.34.34.6.47.1.05.16.07.18.07l.1.09c.68.35 1.28.33 2.02.36.71.04 1.21.18 1.94.01 1-.22 1.78-.77 1.96-1.85.1-.6-.09-1.3-.12-1.9-.04-.58-.1-1.2-.18-1.78-.18-1.33-.26-2.7-.47-4.03-.23-1.47-.47-2.98-.77-4.44a31.6 31.6 0 01-.4-2.3l.11.01c2.46.25 4.16-1.8 4.4-4.09.12-1.16.03-2.34-.08-3.52 1.02.1 2.15-.05 3.04.04 2 .22 4.02-.06 6 .06.8.05 1.6.07 2.38.08.09.7.35 1.42.37 2.12.03.95.11 1.92.26 2.86.34 2.08.64 4.24.68 6.34.01.46.17.9.17 1.36 0 .45.01.83.07 1.27l.33 2.38c.27 1.68.46 3.44.86 5.1.41 1.68 1.94 2.03 3.48 1.84 1.51-.2 2.83-.7 2.8-2.4-.04-1.88-.52-3.77-.73-5.64-.2-1.8-.44-3.6-.62-5.4-.2-1.97-.35-3.94-.66-5.9-.15-.98-.34-1.96-.44-2.95a5.58 5.58 0 00-.25-1.04c.79-.09 1.54-.3 2.1-.84 2.29-2.23.66-5.66-1.93-6.73l-.02-.01c.33-1.56.47-3.18.72-4.75.13-.83.2-1.69.26-2.52.04-.5.14-.98.16-1.46a1.5 1.5 0 001-.58c.67-.84.77-2.21.9-3.23.13-1.15.22-2.3.27-3.47.1-.83.2-1.67.33-2.51.53-3.32 1.22-6.6 1.6-9.94l.53-4.52c.09-.83.1-1.64.23-2.47.07-.44.15-.92.03-1.36zM6.04 45.12c-.28.11-1.14-6.74-1.2-7.18-.08-.57-.11-1.06-.23-1.5-.22-1.5-.5-2.97-.73-4.46-.4-2.52-.9-5.13-1.02-7.67-.05-1.16-.08-2.32-.27-3.47-.04-.27-.06-.6-.15-.87a.5.5 0 01-.04-.18c.51-.22 1.32-.2 1.83-.29.49-.08 1.15-.29 1.64-.17.5.11.93.72 1.19 1.15.55.91.96 1.91 1.42 2.87.99 2.08 1.35 4.22 1.92 6.42.64 2.52.48 5.5.13 8.05-.16 1.18-.27 2.37-.54 3.53-.32 1.35-.36 2.26-1.67 3a6.6 6.6 0 01-1.77.64c-.17.04-.36.06-.51.13zm3.58 9.54c-.5.17-1.01.37-1.52.57-.01-1.29-.36-2.69-.6-3.9-.28-1.4-.3-2.9-.63-4.3a10.92 10.92 0 001.85-.56l.03.49c.06.81.1 1.64.2 2.45.23 1.75.53 3.5.67 5.25zm1.2 9.27c-.47 2.79-.5 5.63-.9 8.43-.45 3.22-.5 6.44-1.17 9.65-.15.75-.25 1.49-.38 2.23-.15.89-.9.78-1.7.61-.24-.05-.56-.25-.81-.3h.01c.06-.07.02-.4.02-.5.06-.87.2-1.71.37-2.57.6-3.3.7-6.7 1.04-10.04.1-1.04.13-2.08.24-3.13.11-1 .33-2.03.38-3.03.02-.56.12-1.17.11-1.74.4 0 .8-.02 1.15-.01l1.75.02c-.05.13-.09.25-.11.38zm13.77-2.85c-.21 0-.42.01-.6.04-.83.1-1.65-.04-2.48.05-1.52.16-3.03.07-4.56.14-3.15.17-6.35.27-9.53.26-.56 0-1.33 0-1.73-.44a1.46 1.46 0 01-.31-1.56c.2-.47.61-1.1 1.02-1.43.47-.4 1.18-.59 1.74-.87.62-.33 1.32-.41 1.98-.66.8-.29 1.53-.5 2.36-.65 1.39-.25 2.94-.56 4.35-.4 1.41.15 2.78.19 4.18.44.81.15 1.63.22 2.45.38.4.08.78.2 1.18.29 0 .93-.02 1.87 0 2.8.01.54-.01 1.07-.05 1.61zm36.7-47.3c.05-.44.07-1.69.3-2.07.26-.45.7-.36 1.19-.39.77-.05 1.55-.12 2.32-.24.5-.08 1-.16 1.51-.2.15-.02.3-.06.35-.03.1.06.25.64.3.82.3.99.38 2.04.44 3.08a3.2 3.2 0 00-3.4.2c-.42.28-.83.8-1.3.97-.65.23-1.18-.21-1.65-.58a.5.5 0 00-.1-.05c0-.5 0-1 .04-1.5zm1.5 8.39a3.6 3.6 0 01-1.65-2.65 9.13 9.13 0 010-2.48c.77.38 1.83.51 2.29.32.92-.37 1.55-1.45 2.57-1.6.56-.07 1.3.14 1.87.46.07.28.14.55.17.83.21 1.77-.12 3.97-1.87 4.85-1.08.54-2.26.89-3.38.27zm-.29 9.51c.42-.3.87-.58 1.24-.94.13.06.26.12.13.04l.8.53c.28.18.56.4.84.6l-.3-.01c-.84-.03-1.75-.02-2.61-.08a8.84 8.84 0 00-.23-.04l.13-.1zM48.85 2.05c.65-.07 1.33.05 1.98.05.57 0 1.15-.08 1.73-.05.03.61-.09 1.24-.11 1.86-.68-.14-1.5 0-2.1.01-.68.02-1.43.15-2.07.37-.03-.4 0-.8-.02-1.2-.01-.63-.17-.96.59-1.04zm-.39 9.25v-.08c-.08-.81.04-1.63.07-2.44.03-.63-.5-2.62.05-3.02.69-.49 1.9-.29 2.69-.29.57 0 .86-.1.89.56l.21 4.63c.04.76.12 1.53.11 2.29 0 .26-.05.42.02.7.02.1.42.78.4.81a3 3 0 01-.36.44c-.55.54-1.35.68-2.1.64-1.06-.07-1.66-.65-2.31-1.3.6-1 .44-1.84.33-2.94zm-2.18 9.08c.12-1 .2-2 .34-3 .07-.49.09-1 .3-1.46a4 4 0 01.55-.78c.07.1.13.2.2.28a4 4 0 002.6 1.4c.98.14 2.1 0 2.9-.61.2-.16.42-.35.62-.57.1.08.2.16.28.26.4.48.5 1.24.57 1.84.17 1.36.23 2.73.25 4.1-.61.02-1.26-.03-1.8-.1-.93-.12-1.9-.17-2.84-.22a11 11 0 00-4.06.38c0-.5.03-1.01.1-1.52zm-.18 6.04c.13-1.24.08-2.5.08-3.74.53.13 1.02.06 1.66 0 1.13-.08 2.33.12 3.46.22 1.03.1 2.05.17 3.08.2l.51.02v1.76c0 1.02 0 2 .07 3-.58.03-1.18-.03-1.75-.03-1.02.01-2.06.1-3.08 0a12.18 12.18 0 00-4.1.13c0-.53.01-1.06.07-1.56zm-.04 2.63c.59.06 1.22.04 1.76.05 1.12.03 2.22.19 3.33.21 1.11.03 2.22-.02 3.33.02l.54.02c-.01.69-.1 1.37-.14 2.05h-.17l-2.1.04c-1.35 0-2.67-.12-4.01-.1-.89 0-1.77.04-2.65.09.12-.77.12-1.57.1-2.38zm-12.3-17.38c.05-.18.2-.76.3-.82.05-.03.2.01.35.02.5.05 1.01.13 1.5.2.78.13 1.55.2 2.33.25.48.03.93-.06 1.2.4.21.37.24 1.62.28 2.07.06.5.05 1 .04 1.5a.48.48 0 00-.09.05c-.48.37-1 .81-1.65.58-.47-.16-.88-.69-1.3-.97a3.2 3.2 0 00-2.38-.54c-.2.03-.6.15-1.03.34.07-1.04.14-2.1.44-3.08zm.42 9.85l-.03-.01c-1.13-1.09-1.35-3-1.17-4.46.03-.28.1-.55.16-.83a3.27 3.27 0 011.88-.45c1.02.14 1.65 1.22 2.57 1.6.45.18 1.52.05 2.3-.33.09.82.12 1.66 0 2.48-.3 1.9-1.59 3.14-3.37 3-.8-.3-1.62-.52-2.34-1zm2.17 9.79l.8-.53c-.13.08 0 .02.13-.04.36.36.82.64 1.23.94l.17.13c-.94.08-1.95.06-2.88.09h-.29l.84-.6zm-9.39 20c0-1 .1-1.97.14-2.97.06-1.21-.07-2.44.01-3.65.14-2.11.23-4.2.41-6.29a38 38 0 01.3-2.66c.07-.4.03-.78.3-1 .36-.3 1.3-.3 1.77-.36 2.13-.33 4.27-.26 6.4-.5 1.05-.12 2.1-.02 3.14-.2 2.1-.37 4.3-.28 6.43-.32a192.37 192.37 0 0111.94.12c2.28.1 4.66.14 6.92.4 2.14.24 4.27.17 6.41.5.47.07 1.4.06 1.77.36.27.22.23.6.29 1 .14.88.23 1.78.3 2.66.18 2.1.27 4.18.41 6.29.08 1.21-.04 2.44.02 3.65.04 1 .14 1.96.13 2.96 0 1.08.03 2.16.07 3.24.01.47.19 1.02-.2 1.25-.73.45-1.88-.12-2.7.14-1.3.4-2.76.75-4.12.93-1.57.21-3.2.28-4.78.3-1.58.02-3.3-.04-4.85-.41a30.28 30.28 0 00-9.63-.94c-3.5.28-6.96 1.03-10.46 1.43-1.9.21-3.77.33-5.68.33-1.03 0-2-.18-3-.36-.56-.1-1.27-.14-1.87-.34.03-1.86.14-3.7.13-5.57zm-.14 6.54c.62.28 1.32.44 1.88.58 1.73.4 3.4.46 5.16.43 3.53-.04 7.09-.66 10.57-1.24 1.68-.29 3.42-.55 5.13-.55.78 0 1.54.13 2.32.15.98.02 2.04.14 3 .35.86.2 1.7.48 2.57.68.84.19 1.65.2 2.5.27 1.64.16 3.17.1 4.81.03 3.18-.14 6.24-1.17 9.43-1.25v.51c0 .84.04 1.66.07 2.48-3.27-.13-6.39.78-9.65.87-1.69.05-3.36.38-5.04.25-.88-.07-1.75-.06-2.63-.12-.94-.06-1.87-.28-2.8-.37-1.64-.17-3.25-.47-4.88-.65-.83-.1-1.57.09-2.4.11-.86.03-1.68.07-2.54.15-1.62.14-3.27.48-4.9.55-1.59.07-3.17-.02-4.76 0-.87 0-1.75.11-2.61.04-.82-.07-1.63-.2-2.45-.28-.72-.08-1.54-.27-2.27-.24h-.6c.05-.92.09-1.83.09-2.75zm6.11 14.71l-.02.14c-.24 2.14-.4 4.3-.5 6.44-.07 1.53-.13 3.02-.27 4.54-.03.39-.03.77-.08 1.16 0 .03 0 .07.02.1-.66.45-1.43.36-2.21.41-.28.03-.88.17-1-.2-.05-.14-.02-.29 0-.43.12-.6.1-1.21.17-1.82.16-1.4.3-2.82.42-4.23.21-2.59.88-5.13.94-7.72.02-1 .92-1.5 1.44-2.33-.18.28.87 1.52 1.04 1.7.07.08.15.15.2.25.23.54-.09 1.43-.15 2zm39.16 12.7c-.17.19-.75.1-.94.1a6.59 6.59 0 01-2.17-.42c-.36-1.86-.29-3.9-.37-5.8-.08-1.69-.22-3.38-.38-5.07l-.22-2.53c-.02-.24-.17-.73-.1-.96.1-.26.5-.57.68-.82.25-.36.45-.74.59-1.14.41.66.9 1.28 1.5 1.72-.3 2.77.65 5.57.87 8.33.12 1.4.27 2.83.43 4.23.06.58.05 1.16.13 1.73.04.3.16.44-.02.64zm.43-16.43c-.64-.03-1.38-.8-1.72-1.28-.45-.64-.71-1.26-.98-1.8-.22-.44-.87-.59-1.28-.33-1.21.75-.82 2.6-1.81 3.6-1.5 1.51-3.66-1.69-4.05-2.91-.3-1-1.6-.91-1.94 0-.44 1.17-.47 2.33-1.4 3.3-.66.66-1.64 1.2-2.5.6-.7-.5-1.16-1.33-1.59-2.05-.47-.8-.6-1.8-1.1-2.57-.34-.5-1.17-.72-1.44.02-.44 1.15-.7 2.34-1.17 3.48-.19.46-.38 1.09-.86 1.3-.57.25-1.41 0-1.76-.48-.62-.86-.38-1.9-.41-2.89-.03-.64-.3-2.28-1.34-1.77-.28.14-.42.45-.5.75-.22.7-.54 1.53-.9 2.16-.43.72-.88 1.56-1.6 2.05-.86.6-1.83.06-2.48-.6-.94-.97-.97-2.13-1.42-3.3-.34-.91-1.62-1-1.93 0-.39 1.22-2.56 4.42-4.05 2.91-.99-1-.6-2.85-1.81-3.6-.41-.26-1.06-.11-1.28.33-.27.54-.53 1.16-.98 1.8-.35.49-1.09 1.25-1.72 1.28-2.42.13-2.03-3.06-1.96-4.58.04-.89.1-1.77.15-2.66.27.07.56.06.84.1.67.11 1.31.25 1.98.33 1.47.18 2.88.34 4.35.3.74-.03 1.45.02 2.18.07.81.05 1.64-.1 2.45-.08 1.58.04 3.17-.23 4.74-.41 1.64-.2 3.28-.24 4.93-.4 1.66-.15 3.4.42 5.05.6 3.42.37 6.78.77 10.22.5a66.5 66.5 0 005.4-.57 38.7 38.7 0 012.95-.33c.85-.07 1.7 0 2.56-.02l.14 2.57c.06 1.52.46 4.71-1.96 4.58zm21.99 10.11c.09.85.1 1.7.25 2.54.16.86.31 1.7.37 2.57 0 .1-.04.42.02.5h.01c-.26.05-.58.25-.82.3-.78.17-1.54.28-1.7-.6-.13-.75-.22-1.5-.38-2.24-.66-3.21-.72-6.43-1.17-9.65-.13-.92-.25-1.92-.3-2.85-.04-.77-.24-1.52-.3-2.28-.06-.76-.02-1.55-.13-2.3l-.16-1a2.13 2.13 0 00-.11-.38l1.75-.02h1.14c0 .58.1 1.2.12 1.75.05 1 .27 2.03.38 3.03.1 1.05.14 2.09.24 3.13.16 1.62.44 3.26.47 4.88.02.87.22 1.75.32 2.62zm.11-20.8c.4.34.81.96 1.02 1.43.22.53.08 1.13-.3 1.56-.4.44-1.19.44-1.75.44-3.17.01-6.37-.1-9.53-.26-1.52-.07-3.03.02-4.55-.14-.83-.09-1.65.05-2.48-.05-.18-.03-.39-.03-.6-.04-.04-.54-.06-1.07-.05-1.6.02-.94 0-1.88 0-2.81.4-.08.78-.21 1.18-.3.82-.15 1.63-.22 2.45-.37 1.4-.25 2.77-.29 4.17-.44 1.42-.16 2.97.15 4.36.4.83.15 1.56.36 2.35.65.66.25 1.37.33 2 .66.55.28 1.26.47 1.73.87zm-3.23-3.48c.14-1.75.45-3.5.67-5.25.1-.81.15-1.64.2-2.45l.05-.5c.52.22 1.08.38 1.62.5l.22.06c-.34 1.4-.35 2.91-.63 4.32-.25 1.2-.59 2.6-.6 3.9-.5-.21-1.01-.4-1.53-.58zm6.9-32.7a21.3 21.3 0 00-.14 2.35c-.1 2.54-.62 5.16-1.01 7.67-.23 1.49-.52 2.97-.73 4.46-.12.44-.15.93-.23 1.5-.17 1.19-.21 2.4-.32 3.59-.09.95-.1 2.6-.65 3.42-.34.5-2.12-.34-2.51-.6-1.31-.74-1.35-1.65-1.67-3-.27-1.16-.38-2.35-.54-3.53-.35-2.56-.51-5.53.13-8.05.56-2.2.93-4.34 1.92-6.42.46-.96.87-1.96 1.42-2.87.36-.6.77-1.14 1.5-1.17.56-.03 1.1.14 1.64.23.4.06 1.42-.14 1.48.43V20c.03.62-.22 1.36-.29 1.97z"/>
</svg>
