<svg xmlns="http://www.w3.org/2000/svg" viewBox="0 0 49.15 48.99">
  <defs/>
  <path fill="#fff" d="M46.3 33.31a9.07 9.07 0 01-8.06 1.15.8.8 0 00-.73.1l-3.62 2.57.93 1.3 3.28-2.32a10.72 10.72 0 009.1-1.47 11.39 11.39 0 001.34-1.06l-1.09-1.18a9.67 9.67 0 01-1.14.91z" class="active-path" data-old_color="#000000" data-original="#000000"/>
  <path fill="#fff" d="M38.23 21.34a7.3 7.3 0 00-3.33 6.95l-10.17 6.52-10.17-6.51a7.26 7.26 0 00-3.32-6.96A7.67 7.67 0 006 20.04 5.94 5.94 0 00.9 27.62a7.67 7.67 0 003.17 4.36 7.26 7.26 0 007.7.48l7.9 5.6-7.52 4.82a3.14 3.14 0 00-.91 4.42 3.15 3.15 0 004.43.8l9.07-6.44 9.08 6.45a3.15 3.15 0 103.52-5.23l-7.52-4.82 7.9-5.6a7.26 7.26 0 007.7-.48c3.3-2.22 4.38-6.42 2.4-9.36-1.98-2.94-6.28-3.51-9.58-1.28zm-23.5 25.45a1.58 1.58 0 01-2.18-.4 1.54 1.54 0 01.45-2.16l8.07-5.17 2.27 1.62zm22.42-1.57a1.55 1.55 0 01-2.42 1.58l-22.5-15.97a.8.8 0 00-.93 0 5.56 5.56 0 01-6.35-.18 6.07 6.07 0 01-2.51-3.44 4.33 4.33 0 013.77-5.59 6.07 6.07 0 014.13 1.05 5.56 5.56 0 012.55 5.81.8.8 0 00.34.87l23.23 14.88a1.53 1.53 0 01.69.99zm7.36-14.57a5.56 5.56 0 01-6.35.18.8.8 0 00-.93 0l-8.88 6.3-2.13-1.37 10.01-6.41a.8.8 0 00.35-.87 5.59 5.59 0 012.55-5.82c2.56-1.73 5.86-1.35 7.35.85 1.48 2.2.6 5.4-1.97 7.14zM9.43 2.2L8.54.85a10.43 10.43 0 00-4.07 12.16l1.51-.53a8.83 8.83 0 013.45-10.3zM7.68 15.38a8.93 8.93 0 01-1.02-1.42l-1.39.8a10.52 10.52 0 001.21 1.68z" class="active-path" data-old_color="#000000" data-original="#000000"/>
  <path fill="#fff" d="M33.54 28.16l2.29-11.42a7.22 7.22 0 00-.67-14.41 7.13 7.13 0 00-4.46 1.55 7.21 7.21 0 00-11.93 0 7.13 7.13 0 00-4.47-1.55 7.22 7.22 0 00-.66 14.4l2.28 11.43 1.58-.31-.45-2.26h15.37l-.45 2.25zM29.67 24l.67-4.7-1.59-.23-.7 4.93h-2.51v-8.83h-1.6V24h-2.52l-.7-4.93-1.6.23.68 4.7h-3.07l-1.64-8.18a.8.8 0 00-.79-.65 5.62 5.62 0 010-11.23 5.56 5.56 0 014.08 1.77.8.8 0 001.3-.2 5.6 5.6 0 0110.1 0 .8.8 0 001.3.2 5.56 5.56 0 014.08-1.77 5.62 5.62 0 010 11.23.8.8 0 00-.78.65l-1.64 8.18z" class="active-path" data-old_color="#000000" data-original="#000000"/>
</svg>
