<svg xmlns="http://www.w3.org/2000/svg" viewBox="0 0 104.35 120.42">
  <defs/>
  <g fill="#fff">
    <path d="M51.38 21.75A48.98 48.98 0 002.46 70.67a48.98 48.98 0 0048.92 48.93 48.98 48.98 0 0048.93-48.93 48.88 48.88 0 00-6.55-24.47 1.96 1.96 0 00-1.77-.97 19.26 19.26 0 01-.02-9.44l.06-.24 10.8-6.24a1.96 1.96 0 00.71-2.68A48.9 48.9 0 0061.17 2.18a1.96 1.96 0 00-1.96 1.95V51.1a1.96 1.96 0 002.94 1.7l2.31-1.34a6.43 6.43 0 01.66 6.01l-1.56 3.91-10.22 5.9V23.7a1.96 1.96 0 00-1.96-1.95zm-1.95 3.95v41.58l-36-20.78a45.03 45.03 0 0136-20.8zM11.47 49.9l36 20.78-36 20.79a44.94 44.94 0 010-41.57zm1.96 44.96l36-20.79v41.58a45.03 45.03 0 01-36-20.8zm39.91 20.79V74.06l36 20.79a45.03 45.03 0 01-36 20.79zM96.4 70.67a44.73 44.73 0 01-5.1 20.79l-36-20.79 36.01-20.8a45.01 45.01 0 015.09 20.8zM76.52 44.73l.07-.27 3.92-2.27a8.36 8.36 0 011.14 6.13l-.6 2.96-3.86 2.23a14.02 14.02 0 01-.67-8.78zm11.9 2.3l-2.87 1.65a12.26 12.26 0 00-1.65-8.44l3.7-2.14a23.16 23.16 0 00.82 8.93zm-25.3-40.9a44.98 44.98 0 0136.02 20.8L63.13 47.7zm4.74 43.37l4.37-2.53a17.97 17.97 0 001.55 8.51L69 58.24a10.34 10.34 0 00-1.14-8.74z"/>
    <path d="M66.98 99.55a1.96 1.96 0 00-3.07-1.09l-7.83 5.87a1.96 1.96 0 00.79 3.49l9.79 1.96a1.96 1.96 0 002.28-2.4zm-5.05 5.29l1.97-1.48.5 1.97zM72.91 88.29a5.87 5.87 0 105.87 5.87 5.88 5.88 0 00-5.87-5.87zm0 7.82a1.96 1.96 0 111.96-1.95 1.96 1.96 0 01-1.96 1.95zM72.91 101.99h3.91v3.91h-3.9zM58.28 95.91l1.75-3.5 3.91 1.96-1.74 3.5zM59.21 86.33h3.92v3.91H59.2zM91.95 73.82l-7.76-2.21a1.96 1.96 0 00-2.48 2.11l1.17 9.72a1.96 1.96 0 003.42 1.05l6.58-7.5a1.96 1.96 0 00-.93-3.17zm-5.7 4.8l-.3-2.44 1.95.56zM79.55 68.86a5.87 5.87 0 105.87-10.17 5.87 5.87 0 10-5.87 10.17zm1.24-6.07a1.94 1.94 0 011.19-.9 1.97 1.97 0 01.5-.08 1.95 1.95 0 01.98.27 1.96 1.96 0 11-2.67.71zM89.26 67.69l1.96-3.4 3.39 1.96-1.96 3.4zM74.52 73.97l3.65-2.41 2.15 3.26-3.65 2.41zM68.85 71.72l1.96-3.39 3.39 1.96-1.96 3.39zM87.4 18.32a1.96 1.96 0 00-3.22-.78l-5.8 5.61a1.96 1.96 0 00.6 3.21l9 3.84a1.96 1.96 0 002.61-2.42zm-4.18 5.6l1.46-1.41.8 2.37zM75.83 17.78a5.87 5.87 0 10-2.15 8.02 5.83 5.83 0 002.15-8.02zm-4.1 4.63a1.96 1.96 0 11-1.97-3.39 1.94 1.94 0 01.98-.26 1.97 1.97 0 01.51.07 1.96 1.96 0 01.47 3.58zM75.56 13.41l3.4-1.96 1.95 3.4-3.39 1.95zM75.36 28.32l3.9-.24.27 4.37-3.9.24zM68.85 33.1l3.4-1.95 1.95 3.39-3.39 1.95zM35.79 41.8a1.96 1.96 0 003.07 1.08l7.83-5.87a1.96 1.96 0 00-.8-3.48l-9.78-1.96a1.96 1.96 0 00-2.28 2.4zm5.05-5.3l-1.97 1.48-.5-1.97zM29.86 53.06a5.87 5.87 0 10-5.88-5.87 5.88 5.88 0 005.88 5.87zm0-7.83a1.96 1.96 0 11-1.96 1.96 1.96 1.96 0 011.96-1.96zM25.94 35.45h3.92v3.91h-3.92zM38.74 46.99l1.75-3.5 3.9 1.96-1.74 3.5zM39.64 51.1h3.91v3.92h-3.9zM10.81 67.52l7.76 2.22a1.96 1.96 0 002.48-2.12l-1.17-9.71a1.96 1.96 0 00-3.41-1.06l-6.59 7.5a1.96 1.96 0 00.93 3.17zm5.71-4.8l.3 2.45-1.96-.56zM23.22 72.49a5.87 5.87 0 00-5.87 10.17 5.84 5.84 0 002.92.79 5.9 5.9 0 001.53-.2 5.87 5.87 0 001.42-10.76zm-1.24 6.06a1.96 1.96 0 01-2.68.72 1.96 1.96 0 112.68-.72zM8.15 75.09l1.96-3.39 3.39 1.96-1.96 3.39zM22.39 66.46l3.65-2.41 2.15 3.26-3.65 2.41zM28.56 71.06l1.96-3.4 3.39 1.96-1.96 3.4zM34.73 96.86a1.96 1.96 0 00-1.15-1.45l-9-3.84A1.96 1.96 0 0021.96 94l3.2 9.45a1.96 1.96 0 003.2.78l5.81-5.6a1.96 1.96 0 00.56-1.77zm-6.86 2.4l-.8-2.37 2.26.97zM46.9 98.12a5.87 5.87 0 10.58 4.46 5.88 5.88 0 00-.59-4.46zm-3.2 3.45a1.94 1.94 0 01-.91 1.18 1.96 1.96 0 11.9-1.18zM31.64 106.93l3.39-1.96 1.96 3.39-3.4 1.96zM33 89.3l3.91-.24.26 4.36-3.9.24zM38.35 87.23l3.39-1.95 1.95 3.39-3.39 1.95z"/>
  </g>
</svg>
