<svg xmlns="http://www.w3.org/2000/svg" viewBox="0 0 512 514">
  <defs/>
  <path fill="#06d806" d="M425.95 91.02C386.86 34.45 324.92 2 256.01 2S125.15 34.45 86.06 91.02C47.16 147.31 38.18 218.56 62 281.52c6.37 17.19 16.49 33.9 30 49.54L242.39 507.7a17.9 17.9 0 0027.25 0L419.98 331.1c13.58-15.74 23.7-32.42 30-49.48 23.86-63.07 14.88-134.32-24.02-190.6zm-9.5 178.07c-4.87 13.16-12.82 26.17-23.61 38.68l-.09.1-136.74 160.62-136.84-160.72c-10.78-12.5-18.73-25.51-23.65-38.8C75.83 216.91 83.3 158 115.5 111.38c32.3-46.76 83.52-73.58 140.5-73.58 56.97 0 108.18 26.82 140.49 73.58 32.2 46.61 39.69 105.53 19.95 157.71z" class="active-path" data-old_color="#000000" data-original="#000000"/>
  <path fill="#06d806" d="M256 108.22c-55.27 0-100.25 44.97-100.25 100.25s44.97 100.25 100.26 100.25c55.28 0 100.25-44.97 100.25-100.25 0-55.27-44.98-100.25-100.25-100.25zm0 164.7a64.52 64.52 0 01-64.44-64.45A64.52 64.52 0 01256 144.02a64.52 64.52 0 0164.44 64.45 64.52 64.52 0 01-64.44 64.45z" class="active-path" data-old_color="#000000" data-original="#000000"/>
</svg>
