<svg xmlns="http://www.w3.org/2000/svg" viewBox="-62 0 77.56 100.46">
  <defs/>
  <path fill="#fff" d="M13.91 54.14a2.33 2.33 0 00-1.9-.55 5.98 5.98 0 00-5.35-4.75l.04-.07c2.06-3.62.41-8.35.06-9.25a13.65 13.65 0 00-6.15-6.87A12.89 12.89 0 00-4 18.23c-.86-.63-1.67-1.1-2.37-1.45.52-2.38.92-5.56-.6-9.02-1.72-3.92-4.99-6.04-7.43-7.14a3.2 3.2 0 00-2.87.14 3.1 3.1 0 00-1.56 2.35c-.06.46-.13.91-.21 1.35a7 7 0 10-9.66 10.07 53.9 53.9 0 01-3.85.68c-4.57.68-9.3 1.39-13 5.75-.88 1.05-3.58 4.23-3.37 8.67.08 1.65.56 3.29 1.4 4.82a16.09 16.09 0 00-3.74 2.73c-1.88 1.85-3 3.92-3.24 6a9.5 9.5 0 001.28 5.76 5.99 5.99 0 00-4.67 4.65 2.34 2.34 0 00-2.69 2.68l5.68 36.29a8.17 8.17 0 008.12 6.94H.9A8.17 8.17 0 009 92.56l5.68-36.29c.12-.8-.17-1.6-.78-2.13zM-24.23 5.06a4.1 4.1 0 014 3.2 10.99 10.99 0 01-2 2.94c-.77.8-1.64 1.46-2.64 2a4.1 4.1 0 01.64-8.14zM-51.6 43.5c.16-1.4.99-2.88 2.39-4.26a13.98 13.98 0 014.39-2.86 29.9 29.9 0 015.63-1.67 1.45 1.45 0 10-.6-2.84c-1.98.41-3.62.86-5.04 1.39A8.27 8.27 0 01-46 29.49c-.16-3.3 1.9-5.73 2.68-6.65 3-3.53 6.99-4.13 11.21-4.76 2.72-.4 5.53-.83 8.1-2.07l.05-.02h.01l.03-.02c1.46-.71 2.7-1.62 3.8-2.76a14.18 14.18 0 002.73-4.17l.01-.04V9c.71-1.63 1.2-3.48 1.44-5.53 0-.03.01-.11.12-.17a.27.27 0 01.24-.01c1.98.88 4.62 2.58 5.96 5.65 1.34 3.03.75 5.9.24 8.06-3.4 4.47-7.34 7.85-11.73 10.03-3.91 1.95-7.92 2.86-11.68 3.57a1.45 1.45 0 10.54 2.85c3.96-.74 8.2-1.71 12.44-3.82a36.14 36.14 0 0012.23-10.2c.54.27 1.17.64 1.83 1.13a10.03 10.03 0 013.44 4.47c.15.4 1.43 3.98.07 6.89-.1.2-.2.42-.33.62-3.67 5.89-18.05 7.04-29.6 7.97l-.83.07c-5.1.4-12.08.93-16.44 6.19l-.1.12c-.3.37-.57.75-.83 1.15a6.96 6.96 0 01-1.23-4.52zm-.43 8.22h41.56a1.45 1.45 0 100-2.9h-36.9l.1-.13.02-.03.05-.06c3.57-4.3 9.59-4.77 14.42-5.15l.84-.06c12.16-.98 25.87-2.08 31.05-8.26 1.56.86 3.83 2.54 4.94 5.42.6 1.55 1.3 4.72.13 6.78-.35.6-.84 1.1-1.51 1.48h-6.63a1.45 1.45 0 100 2.9H6.15a3.07 3.07 0 013.07 3.07v.35l-.43.4c-.86.8-1.42 1.33-2.66 1.33-1.24 0-1.8-.53-2.64-1.33-1-.94-2.24-2.12-4.63-2.12-2.4 0-3.64 1.18-4.64 2.12-.84.8-1.4 1.33-2.63 1.33-1.24 0-1.8-.53-2.63-1.33-1-.94-2.24-2.12-4.64-2.12-2.4 0-3.63 1.18-4.63 2.12-.84.8-1.4 1.33-2.64 1.33-1.23 0-1.79-.53-2.63-1.33-1-.94-2.24-2.12-4.63-2.12-2.4 0-3.64 1.18-4.64 2.12-.84.8-1.4 1.33-2.63 1.33-1.24 0-1.8-.53-2.63-1.33-1-.94-2.24-2.12-4.64-2.12-2.4 0-3.63 1.18-4.63 2.12-.84.8-1.4 1.33-2.63 1.33-1.24 0-1.8-.53-2.66-1.33l-.43-.4v-.35a3.07 3.07 0 013.07-3.06zM6.14 92.1A5.28 5.28 0 01.9 96.6h-2.18l3.07-32.77a1.45 1.45 0 00-2.9-.27L-4.2 96.6h-7.19l1.51-32.84a1.45 1.45 0 10-2.9-.13L-14.3 96.6h-7.18l-.01-32.9a1.45 1.45 0 00-2.9 0v32.9h-7.19l-1.51-32.97a1.45 1.45 0 10-2.9.13l1.5 32.84h-7.18l-3.17-33.78a1.45 1.45 0 00-2.89.27l3.14 33.5h-2.18a5.28 5.28 0 01-5.24-4.48l-5.52-35.21c.29.2.56.47.87.75 1 .95 2.26 2.12 4.65 2.12 2.4 0 3.63-1.17 4.63-2.12.84-.8 1.4-1.32 2.64-1.32 1.23 0 1.79.52 2.63 1.32 1 .95 2.24 2.12 4.63 2.12 2.4 0 3.64-1.17 4.63-2.12.85-.8 1.4-1.32 2.64-1.32 1.24 0 1.8.52 2.63 1.32 1 .95 2.24 2.12 4.63 2.12 2.4 0 3.64-1.17 4.64-2.12.84-.8 1.4-1.32 2.63-1.32 1.24 0 1.8.52 2.64 1.32 1 .95 2.23 2.12 4.63 2.12s3.64-1.17 4.63-2.12c.84-.8 1.4-1.32 2.64-1.32 1.24 0 1.8.52 2.63 1.32 1 .95 2.24 2.12 4.64 2.12 2.39 0 3.64-1.17 4.65-2.11.3-.3.58-.55.87-.76zm0 0"/>
</svg>
