<svg xmlns="http://www.w3.org/2000/svg" width="102.02" height="78.18" viewBox="0 0 12.15 7.18">
  <defs/>
  <g fill="#fff" fill-rule="nonzero" transform="matrix(.19788 0 0 .19788 -.1 -1)">
    <path d="M55.63 13.45c.47-1.01.13-2.21-.8-2.81a17.08 17.08 0 00-5.7-2.26 7.2 7.2 0 00-2.73-2.85C42.95 3.35 37 1.25 28.15 3.38 25.01.2 21.04-.29 16.98 1.25 12.95 2.8 8.38 6.81 5.4 9.95c-1.9 1.98-3.1 3.33-2.46 5.92a22.8 22.8 0 00-2.02 7A19.2 19.2 0 007.2 39.64c2.17 4.69 7.43 6.4 12.61 6.4 1 0 2.01-.08 3-.22.33.15.67.26 1.02.32 3.4.5 10.6-.33 11.25-3.78.33-1.76-1.01-3.63-4.09-5.7a6.9 6.9 0 00-1.56-4.85 4 4 0 001.41-1.88 4.71 4.71 0 003.64-2.74c3.07.86 5.51.52 6.89-2.35 2.68.95 5.94.4 8.56-.72a10.61 10.61 0 008.83.8c4.78-1.9 1-8.34-3.12-11.47zM2.9 23.23c.26-2.24.88-4.41 1.83-6.45a14.84 14.84 0 0111.7-.7c7.5 2.85 11.83 11.56 12.55 13.08-.18.55-.56 1-1.07 1.28a32 32 0 00-7.6-3.39c-8.2-2.73-14.23 2.23-14.06 8.55A16.66 16.66 0 012.9 23.22zm16.43 20.81c-2.44-.04-8.33-.65-10.4-5.4-2.73-6.3 2.64-12.4 10.75-9.7 2.25.7 4.42 1.62 6.49 2.75 1.98 1.22 2.54 2.27 2.74 3.74a3.9 3.9 0 00-2.47-.19 8.42 8.42 0 00-5.75 5.64 3.95 3.95 0 00.23 3.12c-.53.05-1.06.06-1.6.04zm13.79-2.05c-.12.66-1.31 1.53-4.28 2.02-1.55.3-3.14.34-4.7.15a1.98 1.98 0 01-1.56-2.6 6.4 6.4 0 014.38-4.39 1.96 1.96 0 011.5.25c4.6 2.73 4.73 4.19 4.66 4.57zm-2.5-14.04c-3.68-7.64-10.52-14.77-19.08-14.77-2.33.03-4.63.5-6.78 1.4.01-1 .74-1.84 1.84-3 7.12-7.46 15.87-13.57 21.57-5.03 5.23 7.85 7.47 20.53 2.45 21.4zm4.52-2.65c1.3-5.94-1.87-14.99-5.56-20.2 7.64-1.6 12.76.23 15.76 2.13.68.4 1.27.94 1.73 1.58a12.17 12.17 0 00-6.06 9.05c-.2 1.8-.57 3.6-1.11 5.33-.75 2.12-1.82 2.94-4.76 2.11zm6.92-2.34c.42-1.58.73-3.2.93-4.82.43-3.38 2.5-6.32 5.55-7.85 1.84.35 3.6 1.03 5.19 2.02.16.1.18.35-.08.51a10.03 10.03 0 00-3.58 4.8 13.98 13.98 0 00-1.32 4.83c-2.1.92-4.47 1.1-6.69.51zm15.96.11c-2.8 1.12-5.65.07-7.27-.77.2-1.36.6-2.69 1.18-3.93a8.66 8.66 0 012.3-3.48c2.36 1.68 4.92 5.06 4.76 7a1.3 1.3 0 01-.97 1.18z"/>
    <path d="M23.2 4.75a6.82 6.82 0 00-4.78.24c-1.85.8-3.57 1.86-5.12 3.14a41.7 41.7 0 00-1.6 1.31 1 1 0 001.3 1.52c.31-.28.63-.54.95-.8l.57-.45a19.68 19.68 0 014.6-2.85 4.89 4.89 0 013.36-.25 1 1 0 00.72-1.86zM52.5 27a3.5 3.5 0 100 7 3.5 3.5 0 000-7zm0 5a1.5 1.5 0 110-3 1.5 1.5 0 010 3z"/>
    <circle cx="46" cy="29" r="1"/>
    <circle cx="42" cy="30" r="1"/>
  </g>
</svg>
