<svg xmlns="http://www.w3.org/2000/svg" viewBox="0 0 101.39 85.37">
  <defs/>
  <path fill="#fff" d="M99.55 71.15h-19a15.03 15.03 0 005.61-11.72 41.73 41.73 0 00-9.56-26.55l2.38-2.38a8.74 8.74 0 002.45-7.47L84 20.46a.59.59 0 01.98 0 6.4 6.4 0 009.06-9.06l-.29-.28a6.36 6.36 0 00-4.53-1.88h-1.38V7.85c0-1.7-.67-3.33-1.88-4.53l-.29-.28a6.4 6.4 0 00-9.05 9.05.7.7 0 010 .98l-2.58 2.58c-2.73-.41-5.5.5-7.46 2.44l-3.82 3.81a41.93 41.93 0 00-18.43-4.3H34.3c-15.16 0-28.45 14.08-28.45 30.12a25.98 25.98 0 0014.29 23.43H2.5c-.93 0-1.68.74-1.68 1.67 0 6.46 5.25 11.7 11.71 11.71h76.97c6.47 0 11.7-5.25 11.71-11.71 0-.93-.75-1.67-1.67-1.67zM78.98 9.73a3.06 3.06 0 014.33-4.33l.28.29c.58.57.9 1.35.9 2.16v4.73h4.73c.82 0 1.6.33 2.17.9l.28.29a3.06 3.06 0 01-4.32 4.32 4.04 4.04 0 00-5.72 0l-1.47 1.48a8.36 8.36 0 00-2.66-2.65l1.48-1.48a4.04 4.04 0 000-5.71zM64.11 25.26l.04-.04c.03-.04.08-.06.12-.1l1.63-1.6-.03-.02 3.07-3.04a5.43 5.43 0 017.68 7.67l-2.2 2.19-.08-.1-1.04 1.28-.1.12-.1.13a8.79 8.79 0 00-2 5.53v6.26a15.91 15.91 0 01-15.89 15.9h-1.67a15.9 15.9 0 110-31.8h4.59a8.7 8.7 0 005.98-2.38zM9.2 47.72c0-14.26 11.73-26.77 25.1-26.77h10.03c5.23 0 10.4 1.07 15.21 3.13a5.54 5.54 0 01-1.42.21h-4.58a19.24 19.24 0 000 38.49h1.67a19.26 19.26 0 0019.24-19.24v-6.26c0-.29.03-.56.08-.84.01-.1.04-.18.06-.27l.1-.38a38.42 38.42 0 018.13 23.64c0 6.47-5.25 11.7-11.71 11.72H34.3c-14.31 0-25.1-10.08-25.1-23.43zM89.5 81.18H12.54c-3.97 0-7.4-2.8-8.2-6.69h93.37a8.38 8.38 0 01-8.2 6.7z"/>
</svg>
